<svg width="24" height="25" viewBox="0 0 24 25" fill="none" xmlns="http://www.w3.org/2000/svg">
<g id=".info">
<path id="Union" fill-rule="evenodd" clip-rule="evenodd" d="M12 3.43481C6.99345 3.43481 2.93481 7.49345 2.93481 12.5C2.93481 17.5066 6.99345 21.5653 12 21.5653C17.0066 21.5653 21.0653 17.5066 21.0653 12.5C21.0653 7.49345 17.0066 3.43481 12 3.43481ZM1.93481 12.5C1.93481 6.94117 6.44117 2.43481 12 2.43481C17.5589 2.43481 22.0653 6.94117 22.0653 12.5C22.0653 18.0589 17.5589 22.5653 12 22.5653C6.44117 22.5653 1.93481 18.0589 1.93481 12.5ZM9.75903 11.6306C9.75903 11.3545 9.98289 11.1306 10.259 11.1306H11.9982C12.2743 11.1306 12.4982 11.3545 12.4982 11.6306V16.348H13.7373C14.0134 16.348 14.2373 16.5719 14.2373 16.848C14.2373 17.1241 14.0134 17.348 13.7373 17.348H10.259C9.98289 17.348 9.75903 17.1241 9.75903 16.848C9.75903 16.5719 9.98289 16.348 10.259 16.348H11.4982V12.1306H10.259C9.98289 12.1306 9.75903 11.9068 9.75903 11.6306ZM13.0012 8.1521C13.0012 8.70438 12.5535 9.1521 12.0012 9.1521C11.4489 9.1521 11.0012 8.70438 11.0012 8.1521C11.0012 7.59981 11.4489 7.1521 12.0012 7.1521C12.5535 7.1521 13.0012 7.59981 13.0012 8.1521Z" fill="#708C91"/>
</g>
</svg>
