<svg width="133" height="132" viewBox="0 0 133 132" fill="none" xmlns="http://www.w3.org/2000/svg">
<g id="ornement">
<g id="Group 2">
<circle id="Ellipse 1" cx="132.312" cy="0.688073" r="0.688073" fill="black"/>
<circle id="Ellipse 2" cx="132.312" cy="3.71566" r="0.688073" fill="black"/>
<circle id="Ellipse 4" cx="132.312" cy="29.0367" r="0.688073" fill="black"/>
<circle id="Ellipse 5" cx="103.688" cy="0.688073" r="0.688073" fill="black"/>
<circle id="Ellipse 3" cx="129.147" cy="0.688073" r="0.688073" fill="black"/>
<rect id="Rectangle 1" x="106.027" y="0.275146" width="20.5046" height="0.688073" rx="0.344037" fill="black"/>
<rect id="Rectangle 5" x="116.624" y="3.44043" width="12.7982" height="0.688073" rx="0.344037" fill="black"/>
<rect id="Rectangle 6" x="128.734" y="16.2385" width="12.7982" height="0.688073" rx="0.344037" transform="rotate(-90 128.734 16.2385)" fill="black"/>
<rect id="Rectangle 2" x="125.982" y="0.275146" width="0.550459" height="6.74312" rx="0.275229" fill="black"/>
<rect id="Rectangle 3" x="125.982" y="6.46777" width="6.6055" height="0.550459" rx="0.275229" fill="black"/>
<rect id="Rectangle 4" x="132.037" y="6.46777" width="0.550459" height="20.2294" rx="0.275229" fill="black"/>
</g>
<g id="Group 3">
<ellipse id="Ellipse 1_2" cx="0.688074" cy="0.688073" rx="0.688074" ry="0.688073" transform="matrix(-1 0 0 1 2.37616 0)" fill="black"/>
<ellipse id="Ellipse 2_2" cx="0.688074" cy="0.688073" rx="0.688074" ry="0.688073" transform="matrix(-1 0 0 1 2.37616 3.02759)" fill="black"/>
<ellipse id="Ellipse 4_2" cx="0.688074" cy="0.688073" rx="0.688074" ry="0.688073" transform="matrix(-1 0 0 1 2.37616 28.3486)" fill="black"/>
<ellipse id="Ellipse 5_2" cx="0.688074" cy="0.688073" rx="0.688074" ry="0.688073" transform="matrix(-1 0 0 1 31 0)" fill="black"/>
<ellipse id="Ellipse 3_2" cx="0.688074" cy="0.688073" rx="0.688074" ry="0.688073" transform="matrix(-1 0 0 1 5.54123 0)" fill="black"/>
<rect id="Rectangle 1_2" width="20.5046" height="0.688073" rx="0.344037" transform="matrix(-1 0 0 1 27.9724 0.275146)" fill="black"/>
<rect id="Rectangle 5_2" width="12.7982" height="0.688073" rx="0.344037" transform="matrix(-1 0 0 1 17.3761 3.44043)" fill="black"/>
<rect id="Rectangle 6_2" width="12.7982" height="0.688074" rx="0.344037" transform="matrix(0 -1 -1 0 5.26599 16.2385)" fill="black"/>
<rect id="Rectangle 2_2" width="0.550459" height="6.74312" rx="0.275229" transform="matrix(-1 0 0 1 8.01834 0.275146)" fill="black"/>
<rect id="Rectangle 3_2" width="6.60551" height="0.550459" rx="0.275229" transform="matrix(-1 0 0 1 8.01834 6.46777)" fill="black"/>
<rect id="Rectangle 4_2" width="0.550459" height="20.2294" rx="0.275229" transform="matrix(-1 0 0 1 1.96332 6.46777)" fill="black"/>
</g>
<g id="Group 4">
<ellipse id="Ellipse 1_3" cx="0.688073" cy="0.677675" rx="0.688073" ry="0.677675" transform="matrix(1 0 0 -1 130.624 131.275)" fill="black"/>
<ellipse id="Ellipse 2_3" cx="0.688073" cy="0.677675" rx="0.688073" ry="0.677675" transform="matrix(1 0 0 -1 130.624 128.293)" fill="black"/>
<ellipse id="Ellipse 4_3" cx="0.688073" cy="0.677675" rx="0.688073" ry="0.677675" transform="matrix(1 0 0 -1 130.624 103.355)" fill="black"/>
<ellipse id="Ellipse 5_3" cx="0.688073" cy="0.677675" rx="0.688073" ry="0.677675" transform="matrix(1 0 0 -1 102 131.275)" fill="black"/>
<ellipse id="Ellipse 3_3" cx="0.688073" cy="0.677675" rx="0.688073" ry="0.677675" transform="matrix(1 0 0 -1 127.459 131.275)" fill="black"/>
<rect id="Rectangle 1_3" width="20.5046" height="0.677675" rx="0.338837" transform="matrix(1 0 0 -1 105.027 131.004)" fill="black"/>
<rect id="Rectangle 5_3" width="12.7982" height="0.677675" rx="0.338837" transform="matrix(1 0 0 -1 115.624 127.887)" fill="black"/>
<rect id="Rectangle 6_3" width="12.6048" height="0.688073" rx="0.344037" transform="matrix(0 1 1 0 127.734 115.282)" fill="black"/>
<rect id="Rectangle 2_3" width="0.550459" height="6.64121" rx="0.275229" transform="matrix(1 0 0 -1 124.982 131.004)" fill="black"/>
<rect id="Rectangle 3_3" width="6.6055" height="0.54214" rx="0.27107" transform="matrix(1 0 0 -1 124.982 124.905)" fill="black"/>
<rect id="Rectangle 4_3" width="0.550459" height="19.9236" rx="0.275229" transform="matrix(1 0 0 -1 131.037 124.905)" fill="black"/>
</g>
<g id="Group 5">
<ellipse id="Ellipse 1_4" cx="0.688086" cy="130.598" rx="0.688074" ry="0.677675" transform="rotate(180 0.688086 130.598)" fill="black"/>
<ellipse id="Ellipse 2_4" cx="0.688116" cy="127.616" rx="0.688074" ry="0.677675" transform="rotate(180 0.688116 127.616)" fill="black"/>
<ellipse id="Ellipse 4_4" cx="0.688116" cy="102.678" rx="0.688074" ry="0.677675" transform="rotate(180 0.688116 102.678)" fill="black"/>
<ellipse id="Ellipse 5_4" cx="29.3119" cy="130.598" rx="0.688074" ry="0.677675" transform="rotate(180 29.3119 130.598)" fill="black"/>
<ellipse id="Ellipse 3_4" cx="3.85316" cy="130.598" rx="0.688074" ry="0.677675" transform="rotate(180 3.85316 130.598)" fill="black"/>
<rect id="Rectangle 1_4" x="26.9724" y="131.004" width="20.5046" height="0.677675" rx="0.338837" transform="rotate(180 26.9724 131.004)" fill="black"/>
<rect id="Rectangle 5_4" x="16.3761" y="127.887" width="12.7982" height="0.677675" rx="0.338837" transform="rotate(180 16.3761 127.887)" fill="black"/>
<rect id="Rectangle 6_4" x="4.26602" y="115.282" width="12.6048" height="0.688074" rx="0.344037" transform="rotate(90 4.26602 115.282)" fill="black"/>
<rect id="Rectangle 2_4" x="7.01834" y="131.004" width="0.550459" height="6.64121" rx="0.275229" transform="rotate(180 7.01834 131.004)" fill="black"/>
<rect id="Rectangle 3_4" x="7.01834" y="124.905" width="6.60551" height="0.54214" rx="0.27107" transform="rotate(180 7.01834 124.905)" fill="black"/>
<rect id="Rectangle 4_4" x="0.963348" y="124.905" width="0.550459" height="19.9236" rx="0.275229" transform="rotate(180 0.963348 124.905)" fill="black"/>
</g>
</g>
</svg>
